<svg version="1.1" xmlns="http://www.w3.org/2000/svg" xmlns:xlink="http://www.w3.org/1999/xlink" viewBox="0 0 45 45">
<path fill-rule="evenodd" clip-rule="evenodd" fill="#404042" d="M23.1,41.7c0.2-0.1,0.4-0.2,0.6-0.2c0.8-0.2,1.6-0.1,2.4,0.1
	c1.3,0.5,0.5,1.4,1.8,1.9c-0.1,0.1,0,0-0.1,0.1c0,0-0.1,0.1-0.1,0.1l-1.1,0.4c-0.6,0.1-1.2,0.1-1.7-0.1c-0.4-0.1-0.9-0.5-1-0.9
	C23.6,42.3,23.6,42.2,23.1,41.7L23.1,41.7z M10.2,4.9l-0.3,0l0.2-0.4c0.1-0.1,0,0,0.1-0.1c0.1-0.1,0,0,0.1-0.1l0.2-0.1
	C10.8,4,10.7,4,10.8,3.9l0.3-0.2l0.7-0.2c0.1-0.1,0.3-0.1,0.5-0.1h0.9l0.1,0c0.4,0.1,0.2,0,0.5,0.2c0.7,1.1,0.8,0.8,1.3,1.2
	c-1.1,0.8-2.4,1.6-3.8,0.8c-0.2-0.3-0.1-0.3-0.4-0.4h0c-0.1-0.1,0,0-0.1-0.1c0,0-0.1-0.1-0.1-0.1C10.4,4.9,10.3,4.9,10.2,4.9
	L10.2,4.9z M10.2,5.4l0.4,0.2c0.1,0.2,0.1,0.2,0.3,0.4c0.4,0.3,0.5,0.2,0.9,0.4c-0.1,0.3-0.4,0.5-0.7,0.7C10.1,8,9.5,8.3,8.2,8
	c-0.1-0.1,0,0-0.1-0.1c0,0-0.1-0.1-0.1-0.1C7.8,7.6,7.6,7.5,7.3,7.5l-0.5,0l0.1-0.3c0.5-0.5,0.4-0.6,1-1.1L8,6
	c0.1-0.1,0.2-0.1,0.3-0.2c0.1-0.1,0.3-0.1,0.4-0.2l0.7-0.2L10.2,5.4z M9.2,4.8C9.1,4.9,9.2,4.9,9,4.9C8.7,5,8.7,5,8.5,5.1
	C8.1,5.2,8,5.4,7.6,5.5L7,6.2C6.8,6.3,6.6,6.6,6.5,6.9L6.2,7.4c0,0.1-0.1,0.2-0.1,0.2L6,7.8c0,0,0,0,0,0L5.7,7.9
	C5.5,8,5.3,8.1,5.2,8.2C5,8.3,5.1,8.3,5,8.4c-0.1,0.1-0.1,0-0.2,0.2l0,0.1C4.6,8.8,4.6,8.8,4.5,8.9C4.5,9,4.5,8.9,4.5,9
	c-0.1,0.1,0,0-0.1,0.1C4.2,9.3,4,9.7,4,9.9l-0.2,0.5l0,0.2l-0.1,0.3c-0.8,0.2-1.8,2.5-1.8,3.3c-0.1,0.9-0.7,0.6-1.1,2.5
	c-0.3,1.3,0.2,1.5-0.2,2.1c-0.4,0.6-0.4,1-0.5,1.7C0,22,0.3,22,0.3,22.5c0,0.2-0.8,1.9,0.2,3.8c0.4,0.7-0.1,0.7,0.2,2.1
	C0.8,29,1.1,29.5,1.4,30c0.2,0.2,0.4,0.4,0.4,0.7c0.1,1,0.2,1.7,1,2.7c1,1.2,0.7,0.2,1,1.4c0.2,0.6,0.5,1.1,0.8,1.5
	c0.5,0.5,0.6,0.7,1.3,1.1c0.5,0.3,0.5,1.5,2.2,2.5C8.5,39.9,8.7,40,9,40.1c0.4,0.2,0.4,0.9,1.8,1.7c0.4,0.2,1.7,0.5,1.8,0.6
	c0.1,0.1,0.7,0.8,1.4,1c0,0,0,0,0.1,0.1c0.1,0,0.1,0.1,0.2,0.1c0.1,0,0.3,0.1,0.4,0.1c0.3,0.1,0.7,0.1,1.1,0.2l0.3,0
	c0.5,0,1.1,0.9,2.8,0.9c0.5,0,1.3-0.2,1.6-0.1c0.6,0.2,0.8,0.3,1.5,0.4c0.6,0.1,1.2,0,1.7-0.2c0.9-0.3,0.4-0.3,1.4-0.2
	c1,0.2,2.3-0.1,3-0.6c0.7-0.5,0.4-0.1,1.6-0.3c1.2-0.2,1.7-0.6,2.4-1.3c0.5-0.5,1.2,0.2,3.1-1.6c0.2-0.2,0.2-0.3,0.4-0.5
	c0.4-0.5,0.9-0.1,2.3-1.5c0.8-0.8,0.4-1.2,1.2-1.6c0.2-0.1,0.4-0.3,0.6-0.4c0.6-0.5,1.3-1.4,1.5-2.3c0.1-0.6,0-0.3,0.8-1.1
	c0.6-0.6,1.1-1.7,1.1-2.6c0-0.8,0.1-0.3,0.7-1.2c0.8-1.5,0.4-2.2,0.5-3c0-0.3,0.9-1.2,0.7-3c-0.1-0.7-0.4-0.8-0.2-1.5
	C45,21.6,45,21,45,20.4c-0.1-1.4-0.7-1.8-0.7-2.1c0-0.1,0.1-0.6,0.1-0.7c-0.1-1-0.2-1.7-0.7-2.5c-0.3-0.4-0.5-0.4-0.5-1
	c0-0.4-0.1-0.8-0.2-1.2c-0.3-0.7-0.8-1.4-1.2-1.8c-0.5-0.4-0.3-0.4-0.5-1c-0.2-0.7-0.7-1.4-1.2-1.8C39,7.5,39,8,38.7,7.2
	c-0.2-0.5-0.6-0.9-0.9-1.3c-0.9-0.9-1.7-0.9-1.9-1.1c-0.1-0.1-0.2-0.3-0.3-0.5c-0.6-0.7-1.4-1.3-2.3-1.5c-0.2-0.1-0.5-0.1-0.7-0.1
	c-0.4-0.1-0.8-1-2.4-1.4c-0.4-0.1-0.9-0.1-1.4-0.1c-0.6,0-1.3-1.1-3.4-0.9c-0.2,0-0.4,0.1-0.7,0.1c-0.6,0.1-1.2-0.7-3.1-0.4
	c-0.4,0.1-1,0.4-1.1,0.4c-0.4,0-1.2-0.4-2.7,0.1c-0.4,0.1-0.7,0.3-1,0.5c-0.4,0.3-0.5,0.2-1.2,0.2l-0.7,0.2c-0.4,0-1,0.3-1.3,0.5
	l-0.4,0.3c-0.6,0.3-0.2,0.5-1.2,0.6l-0.5,0.1L11.3,3c-0.4,0.1-0.4,0.2-0.8,0.4c0,0,0,0,0,0c0,0,0,0,0,0c-0.3,0.2-0.5,0.4-0.7,0.6
	l0,0l0,0c-0.1,0.1,0,0-0.2,0.1c-0.1,0.1,0,0-0.1,0.2C9.3,4.6,9.2,4.7,9.2,4.8L9.2,4.8z M13.6,2.6c0.1-0.1,0.2-0.1,0.3-0.3
	c0.5-0.2,0.8-0.4,1.4-0.5c0.4-0.1,0.4,0,0.9,0c1.5,0,1,0.9,1.9,1.7c0.2,0.1,0.1,0,0.3,0.2c-0.7,0.4-1.6,0.8-2.7,0.7
	c-1.2-0.1-1.3-0.8-1.5-1C14.1,3.1,14,3.2,13.8,3c-0.1,0,0-0.1-0.1-0.1c0,0,0,0-0.1,0l-0.3,0l0.1-0.2L13.6,2.6z M5,9.1l0.2-0.2
	c0,0,0-0.1,0,0c0,0,0,0,0,0l0.3-0.3l0.6-0.3L6.7,8c0.8,0,0.7-0.1,1.2,0.3c0.3,0.2,0.7,0.3,1.2,0.4c0,0.5-1.3,2-2.5,2.2
	c-0.7,0.1-0.7-0.2-1.2-0.3c-0.1,0,0-0.1-0.5-0.1c-0.2,0-0.4,0.1-0.6,0.1c0-0.1,0,0,0-0.1l0.1-0.2l0.3-0.6c0.1-0.1,0.1-0.1,0.1-0.2
	C4.9,9.2,4.9,9.3,5,9.1L5,9.1z M4.2,11.2C4.2,11.2,4.3,11.2,4.2,11.2c1.2-0.6,0.8,0.3,2.5,0.2c-0.2,1-1,1.9-1.5,2.3
	c-1.2,0.9-1.4-0.1-2.9,0.4C2.5,12.9,3.1,11.8,4.2,11.2L4.2,11.2z M15.9,43.1c0,0.2,0.1,0.1,0,0.2l-0.3,0l-1-0.2L14,42.7
	c-0.2-0.1-0.4-0.3-0.6-0.4c-0.1-0.2-0.7-0.6-0.7-1.4c0-0.7,0.4-0.6,0.2-1.8c1.3,0.2,2.8,1.1,3,2.5l-0.2,0.7L15.9,43.1z M31.6,6.3
	L32,6.4c0.5,0.1,0.3-0.1,0.6,0.3c0.5,0.7,1.3,1.3,2.1,1.7c0.3,0.1,0.4,0,0.6,0.3c0.5,0.9,0.8,1.5,1.7,2.1c0.8,0.6,0.4,0.1,0.8,1.1
	c0.3,0.8,1.1,1.9,1.6,2.1c0,1.1,0.3,2.2,1.1,3c0.3,0.4,0.1,0.4,0.1,1.1c0,0.8,0.2,1.7,0.5,2.2c0.3,0.5,0.2,0.3,0,0.9
	c-0.1,0.4-0.1,0.8-0.1,1.2c0,1.8,0.6,1.3,0.1,2.1c-0.9,1.7-0.1,2.7-0.6,3.3c-0.7,0.9-1,1.8-1,3c-0.7,0.4-1.5,1.4-1.7,2.5
	c-0.1,0.5,0,0.4-0.4,0.6c-1.3,0.7-1.5,1.6-2,2.3c-0.2,0.3-1,0.2-2,1.2c-0.7,0.7-0.6,1-1.1,1.1c-0.9,0.2-1.9,0.5-2.6,1.2
	c-0.7,0.7-1.2,0-2.9,0.8c-0.3,0.1-0.5,0.3-0.7,0.4c-0.2,0.1-1.5-0.1-1.9-0.1c-0.9,0.1-1.6,0.4-1.7,0.5c-0.2,0-1.4-0.6-2.7-0.5
	c-0.3,0-0.7,0.2-0.9,0.2c-0.3-0.1-0.7-0.6-1.4-0.7c-0.3-0.2-0.6-0.2-1-0.3l-1.1,0c-0.3-0.4-0.8-0.8-1.4-1.1
	c-0.5-0.3-0.8-0.3-1.4-0.4c-0.6-0.1-0.2-0.1-0.9-0.9c-0.9-0.9-2.1-1.1-2.2-1.4c-0.1-0.2-0.2-0.5-0.4-0.8c-0.2-0.3-0.3-0.5-0.5-0.7
	c-0.2-0.2-0.4-0.4-0.7-0.6c-1.1-0.9-0.4,0.1-1-1.4c-0.3-0.8-0.9-1.5-1.6-2c0-1.2-0.4-2.2-1.1-3c-0.4-0.5,0.4-1.5-0.6-3.3
	c-0.3-0.5-0.1-0.4,0-1C4,22.9,4,22,3.8,21.3c-0.2-0.6-0.1-0.5,0.1-1c0.9-1.9,0-2.5,0.6-3.2c0.7-0.9,1-1.8,1-3
	c0.7-0.3,1.5-1.6,1.7-2.5c0-0.1,0-0.2,0.1-0.2C7.4,11,7.7,11,8.2,10.7c1-0.7,1.5-2.1,1.5-2.1c0.7-0.4,0.9-0.3,1.6-0.8
	c1.1-0.8,0.9-1.2,1.4-1.3c0,0,0.2,0,0.2,0c0.4-0.1,0.9-0.3,1.3-0.4c0.6-0.3,0.9-0.6,1.4-1c2.1,0.1,3-0.8,3.3-0.9
	c0,0,1.4,0.2,1.8,0.1c0.7-0.1,1.3-0.4,1.7-0.4c0.1,0,1.3,0.4,1.7,0.4C24.6,4.2,25.9,4,26,4c0.2,0.1,0.4,0.4,1.4,0.7
	c0.7,0.2,1.2,0.2,1.9,0.2c0.3,0.4,0.5,0.6,1,0.9C30.7,6,31.2,6.2,31.6,6.3L31.6,6.3z M32.1,5.6l0,0.2l-0.5-0.1
	c-0.9-0.3-1.7-0.8-2-1.3c-0.2-0.3-0.5-0.7-0.4-1.2c0.1-0.8,0-0.8-0.2-1.4c0.7,0,1.1,0.1,1.6,0.4c0.6,0.2,0.7,0.4,1.1,0.8
	C33,4.1,31.9,4.4,32.1,5.6L32.1,5.6z M16.6,43.2L16.5,43c-0.2-0.3-0.2-0.5-0.2-0.8c0.1-0.9,0.1-0.7-0.2-1.5l0.7,0.1l1,0.2
	c0.3,0.3,0.9,0.3,1.5,1.2c0.3,0.4,0.1,0.7,0.2,1.2c0.1,0.4,0.3,0.6,0.5,0.9C18.5,44.3,17.3,43.9,16.6,43.2L16.6,43.2z M19.5,41.5
	c0.8-0.4,3.4,0,3.7,1.5c0.1,0.4,0.2,0.7,0.4,1l0.2,0.2c0,0,0,0,0,0c-1,0.6-3.7,0.2-3.9-1.1c-0.1-0.3,0-0.5-0.1-0.9
	C19.8,41.9,19.7,41.8,19.5,41.5L19.5,41.5z M26.6,41.3c0.1-0.2,0.3-0.2,0.5-0.3c0.2-0.1,0.5-0.2,0.7-0.2c0.5-0.1,1.1-0.2,1.7-0.1
	c1.2,0.2,0.9,0.8,1.5,1.3c0.2,0.2,0.4,0.2,0.6,0.3c-0.7,0.5-1.7,1.2-2.9,1c-0.6-0.1-1-0.3-1.2-0.8C27.2,41.7,27.2,41.8,26.6,41.3
	L26.6,41.3z M30,40.2c0.1-0.1,0,0,0.1-0.1c0.5-0.5,1.7-1,2.4-1c1.7-0.1,1.1,1,2.6,1.1c-0.7,1.3-3.3,2.1-4,1.1
	c-0.2-0.3-0.2-0.4-0.4-0.6C30.5,40.4,30.3,40.4,30,40.2L30,40.2z M9.9,37.1c0.8,0.3,1.7,1,2.1,1.6c0.9,1.4-0.2,1.4,0.2,3
	c-1.5-0.2-3.2-1.9-2.8-3C9.6,38.2,10,38.3,9.9,37.1L9.9,37.1z M33.1,38.6c0.3-0.6,1.3-1.3,2.2-1.6c1.7-0.5,1.3,0.7,2.9,0.6
	c-0.3,0.8-1.3,1.7-2.2,2C34.2,40.1,34.7,38.8,33.1,38.6L33.1,38.6z M8.9,39.5c-1-0.3-1.8-1.2-2.2-2c-0.2-0.5-0.3-1.2,0.1-1.6
	c0.8-0.9,0.5-1,0.7-1.3c0.7,0.4,1.4,1.1,1.7,2C9.8,38.1,8.7,37.9,8.9,39.5L8.9,39.5z M35.9,36.3c0.5-0.9,0.9-1.5,1.8-1.9
	c1.5-0.8,1.4,0.4,3,0.1c-0.3,1.5-2.3,3.1-3.3,2.4C36.7,36.4,37.1,36.5,35.9,36.3L35.9,36.3z M6,36.7c-0.5,0-1.5-1.4-1.8-2.3
	c-0.4-1.8,0.9-1.3,1.2-2.7C6,31.8,6.7,33,6.9,33.9C7.2,35.6,6,35.2,6,36.7L6,36.7z M38.2,33.6c0.3-1.3,1.7-2.9,2.8-2.7
	c0.9,0.2,0.6,0.2,1.6,0c-0.1,1.2-0.7,2.1-1.4,2.6C39.8,34.6,39.9,33.5,38.2,33.6L38.2,33.6z M3.6,33.4c-0.3-0.4-0.4-0.2-0.9-1.2
	c-0.4-0.9-0.7-2.5,0.3-3c0.9-0.4,0.5-0.3,1.1-1l0.1,0.1c0,0,0,0,0,0c0.2,0.2,0.5,0.8,0.6,1.1C5,30,5.1,30.6,5,31.1
	c-0.1,0.7-0.3,0.9-0.7,1.2C3.9,32.7,3.9,32.9,3.6,33.4L3.6,33.4z M40,30.6c0.1-1.1,0.6-2,1.1-2.6c1.1-1.1,1.2,0,2.7-0.9
	c0.3,1.5-0.9,3.7-2.2,3.5C40.7,30.4,41,30.3,40,30.6L40,30.6z M1.9,29.8c-0.5-0.8-1-1.9-0.7-3.1c0.4-1.5,1-0.5,2.1-1.8
	C3.8,25.6,4,27,3.7,27.9c-0.2,0.6-0.4,0.7-0.9,0.9C2.1,29.2,2.2,29.5,1.9,29.8L1.9,29.8z M41.2,27.2c-0.1-1.1,0.2-2.1,0.7-2.8
	c0.8-1.1,1.4-0.2,2.3-1.3l0.1,0.4c0.1,0.4,0.1,0.9,0,1.3c-0.1,0.5-0.3,1-0.5,1.4c-0.8,1.2-1.3,0.6-2.1,0.8
	C41.5,27,41.4,27.2,41.2,27.2L41.2,27.2z M0.9,25.9c-0.4-1.1-0.6-2.1-0.1-3.2c0.2-0.4,0.5-0.8,1.1-0.9c0.9-0.1,0.8-0.2,1.3-0.5
	c0.4,0.7,0.1,2.3-0.2,3c-0.5,1-1.1,0.4-1.9,1.3C1,25.8,1.1,25.8,0.9,25.9L0.9,25.9z M41.8,23.7c-0.4-0.9-0.2-2.3,0.2-3
	c0.6-1,1.1-0.6,1.7-1.1l0.4-0.4c0.6,0.8,0.5,2.2,0.1,3.1C43.6,23.6,42.6,22.8,41.8,23.7L41.8,23.7z M0.7,21.9
	c-0.2-1.2-0.2-2.3,0.5-3.1c1-1.2,1.2-0.3,2.7-1c0.1,1.3-0.4,3.4-1.9,3.5C1,21.4,1.1,21.7,0.7,21.9L0.7,21.9z M41.7,20.1
	c-0.5-0.6-0.6-2.2-0.4-3c0.2-0.6,0.4-0.7,0.9-1c0.7-0.4,0.4-0.4,0.9-0.9c1,1.2,1.2,3.8-0.2,4.2C42,19.6,42.2,19.7,41.7,20.1
	L41.7,20.1z M1.2,17.9c-0.1-1.7,0.9-3.6,2.2-3.5c0.8,0.1,0.2,0.3,1.6,0c-0.1,1.4-1.1,3.3-2.4,3.1C1.6,17.5,1.7,17.7,1.2,17.9
	L1.2,17.9z M40.9,16.7c-0.4-0.8-1-1.5-0.9-2.8c0.1-0.7,0.3-0.9,0.7-1.2c0.6-0.5,0.4-0.6,0.7-1.1c0.7,0.7,1.3,1.6,1.3,2.8
	c-0.1,1.6-1,1-1.5,2C40.9,16.6,41.1,16.5,40.9,16.7L40.9,16.7z M39.5,13.4c-0.5-0.3-1.2-1.4-1.4-2.3c-0.1-0.7,0-1.1,0.4-1.5
	C38.9,9.1,38.9,9,39,8.3c0.7,0.4,1.5,1.3,1.7,2.4c0.1,0.7,0,1.3-0.4,1.6C39.7,12.7,39.9,12.7,39.5,13.4L39.5,13.4z M37.6,10.5
	c-0.7-0.3-1.5-1.2-1.8-2c-0.6-1.6,0.5-1.3,0.3-2.9c0.9,0.2,1.8,1.2,2.1,1.9C39,9.3,37.7,8.8,37.6,10.5L37.6,10.5z M35.2,4.9
	c1,1.5-0.2,1.5-0.1,3.1c-0.8-0.2-1.7-1.1-2.1-1.6c-1-1.5,0.2-1.4-0.3-3C33.9,3.5,34.8,4.2,35.2,4.9L35.2,4.9z M17.1,1.4
	c0.6-0.6,2.3-0.7,3.2-0.4c0.5,0.2,0.9,0.5,0.9,1c0.1,0.7,0.3,0.9,0.7,1.3c-0.8,0.4-2.2,0.5-3.1,0C18.2,3,18.2,3,18,2.4
	C17.7,1.7,17.5,1.8,17.1,1.4L17.1,1.4z M25.6,2.3c0-1-0.3-0.9-0.5-1.4c2-0.3,3.8,0.8,3.7,1.9c-0.1,1-0.2,0.7,0.1,1.6
	c-1.1,0-2.1-0.4-2.7-0.9C25.9,3.2,25.6,2.9,25.6,2.3L25.6,2.3z M24.3,1C24.7,1.2,25,1.5,25,2.1c0.1,1,0.1,0.7,0.4,1.5
	c-1.5,0.2-3.5,0-3.7-1.6c-0.1-0.7-0.4-0.8-0.7-1.1C22.3,0.4,23.2,0.4,24.3,1L24.3,1z"/>
</svg>