<svg xmlns="http://www.w3.org/2000/svg" viewBox="0 0 45 45">
<path fill-rule="evenodd" clip-rule="evenodd" fill="#3F3F41" d="M35.4,7.6c0-1.3,0.1-0.9,0.4-1.6c0.3-0.5-0.1-1.2-0.3-1.6
	C35.1,3.8,34.1,3,33,2.8c0.4,1.5-0.7,1.7,0.2,3.1C33.7,6.6,34.4,7.2,35.4,7.6L35.4,7.6z M2.7,24.1L3,23.2L3,22.6
	c0-0.4-0.1-1-0.2-1.3c-0.2,0.1-0.4,0.3-0.8,0.5c-0.5,0.1-0.7,0-1.1,0.3c-0.5,0.4-0.9,1.1-0.8,1.9C0,24,0,24.3,0,24.5
	c0,0.6,0.2,1.1,0.4,1.5c0.3-0.4,0.4-0.6,0.9-0.8c0.2-0.1,0.3-0.1,0.4-0.1c0.2-0.1,0,0,0.2-0.1C2.1,25,2,25.1,2,25
	c0.2-0.1,0.3-0.2,0.4-0.4L2.7,24.1z M30.2,40.7c0.7,0.2,0.9,0.5,1.1,1c0.8,1.3,3.7,0,4.1-1.1c-1.6-0.2-1-1.2-2.7-1.1
	C31.8,39.5,30.7,40.1,30.2,40.7L30.2,40.7z M1.5,30c0.3-0.5,0.4-0.8,0.9-1c1.8-0.8,0.9-3.2,0.6-4.1c0,0,0,0-0.1,0l-0.1,0.1
	c-0.4,0.4-0.5,0.5-1.1,0.7C0.2,26.1,0.5,29,1.5,30L1.5,30z M42.2,23.8c0.6-0.3,0.1-0.4,1.4-0.6c0.5-0.1,0.9-0.5,1.1-0.9
	c0.4-0.8,0.4-2.5-0.1-3.2c-0.4,0.3-0.3,0.6-1,0.8C41.8,20.3,42,22.4,42.2,23.8L42.2,23.8z M41.7,27.3c0.6-0.1,0-0.3,1.5-0.3
	c1.3,0,2.2-2.3,1.6-3.9c-0.6,0.9-1.6,0.2-2.4,1.3C41.9,25.1,41.5,26.2,41.7,27.3L41.7,27.3z M25.2,0.4c0.3,0.5,0.5,0.6,0.5,1.3
	c-0.1,1.5,2.1,2.2,3.4,2.2c0-0.2-0.2-0.4-0.2-0.7c-0.1-0.6,0.4-1.4-0.6-2.2C27.4,0.5,26.4,0.2,25.2,0.4L25.2,0.4z M21.1,0.3
	c0.3,0.4,0.6,0.4,0.7,1.1c0.3,1.6,2.4,1.8,3.8,1.7c-0.2-0.7-0.4-0.2-0.4-1.5C25.1,0,22.1-0.3,21.1,0.3L21.1,0.3z M0.2,21.9
	c0.3-0.3,0.6-0.5,1.3-0.6c1.5-0.1,2-2.2,1.9-3.6c-0.9,0.4-0.6,0.3-1.6,0.3C0.5,18-0.3,20.3,0.2,21.9L0.2,21.9z M1.9,13.9
	c1.3-0.6,1.5,0.5,2.9-0.5C5.5,13,6.2,12,6.4,11.1c-0.3,0-0.6,0.1-0.9,0c-0.6-0.1-1.1-1-2.7,0.6c-0.2,0.2-0.3,0.4-0.4,0.6
	C2.1,12.8,1.9,13.3,1.9,13.9L1.9,13.9z M39.9,13.2c0.1-0.2,0.2-0.4,0.3-0.7c0.2-0.2,0.3-0.3,0.5-0.5c1.3-1-0.2-3.6-1.4-4.1
	c0,1.7-1.2,1.1-0.9,2.9c0.1,0.5,0.3,1,0.5,1.3C39.3,12.6,39.6,12.9,39.9,13.2L39.9,13.2z M42,16.5L41.8,17c-0.1,0.7-0.3,2.5,0.4,3.1
	c0.5-0.4,0.4-0.5,1.2-0.8c1.4-0.4,1.2-3.3,0.1-4.3C43.2,16.1,42.6,15.8,42,16.5L42,16.5z M5.1,31.8c-0.4,0.9-0.2,0.6-0.9,1.2
	c-0.4,0.3-0.5,0.9-0.4,1.5C4,35.6,4.9,36.7,5.6,37c0-1.7,1.2-1.1,0.9-2.9c-0.1-0.5-0.3-1-0.5-1.4C5.5,32.1,5.6,32.4,5.1,31.8
	L5.1,31.8z M23.1,42.1c0.1,0.2,0.1,0.1,0.2,0.3c0.8,0.9,0.1,1.6,1.5,2.1c1,0.4,2.5,0.2,3.2-0.4c-0.2-0.2-0.6-0.3-0.9-1
	C26.5,41.4,24.3,41.9,23.1,42.1L23.1,42.1z M6.4,7.1c1.8,0,1.2,1.1,3,0.6c0.5-0.1,0.9-0.4,1.3-0.6c0.5-0.4,0.6-0.6,0.9-1
	c-0.9-0.3-0.7-0.2-1.3-0.8c-0.4-0.4-1-0.4-1.6-0.2C7.7,5.4,6.8,6.2,6.4,7.1L6.4,7.1z M13.1,2.3c0.2,0.2,0.7,0.3,1,0.8
	c0.3,0.5,0.4,0.7,1.1,0.8c1.2,0.2,2.2-0.2,3-0.6C18,2.8,17.8,3,17.4,2.1c-0.5-1.3-2.6-1-3.7-0.3C13.4,2,13.4,2.1,13.1,2.3L13.1,2.3z
	 M3.9,10.3c0.9-0.1,0.8-0.1,1.5,0.3c1.2,0.5,2.9-1,3.4-2.2c-0.3,0-0.6,0-0.9-0.1C7.4,8,7.1,7.2,5.7,7.9C4.9,8.3,4.1,9.2,3.9,10.3
	L3.9,10.3z M17,0.9c0.3,0.3,0.7,0.4,0.9,0.9c0.2,0.6,0.3,0.8,0.9,1c0.7,0.3,2.5,0.4,3.2-0.1c-0.4-0.6-0.5-0.3-0.7-1.3
	c-0.1-0.5-0.5-0.8-1-1C19,0.1,18,0.4,17,0.9L17,0.9z M41.6,16.2c0.3-0.7,0.6-0.4,1.1-0.9c0.3-0.3,0.5-0.9,0.4-1.5
	c-0.1-1.2-0.8-2-1.3-2.6c-0.5,1.9-1.2,0.9-1.4,2.4c-0.1,1.2,0.4,2.3,0.9,2.9C41.5,16.3,41.5,16.3,41.6,16.2L41.6,16.2z M3.2,33.7
	c0.3-1.5,1.3-0.9,1.4-2.4c0-0.9-0.4-2.5-1-2.8c-0.3,0.6-0.5,0.7-1.1,1C1.2,30.1,2.2,33.2,3.2,33.7L3.2,33.7z M37.9,10.2
	c0.3-1,0.1-0.7,0.7-1.4c0.8-1-0.5-3.2-2.1-3.7c0,0.8,0.1,0.8-0.3,1.4C35.3,7.8,37.1,9.9,37.9,10.2L37.9,10.2z M9.1,39.5
	c0,0.3,0.2,0.6,0.3,0.9c0.3,0.2,0.2,0.4,1.1,1.1c0.4,0.3,1,0.6,1.6,0.7c-0.4-1.3,0.4-1.4,0.1-2.4c-0.2-0.7-0.8-1.3-1.2-1.7
	c-0.4-0.3-0.7-0.5-1.2-0.7C9.7,38.7,9.1,38.6,9.1,39.5L9.1,39.5z M9.5,4.4c0.7,0.3,0.8,0.1,1.2,0.6c1.1,1.2,3.3,0.2,4-0.7
	c-1.5-0.7-0.7-1.1-1.7-1.4C11.9,2.4,10.1,3.5,9.5,4.4L9.5,4.4z M15.8,43.8c-0.2-0.8-0.3-0.6-0.2-1.5c0.1-0.6-0.2-1-0.5-1.3
	c-0.6-0.7-1.2-1.1-2.5-1.4c0.1,1.7,0.1,0.6-0.2,1.7C12.2,42.3,13.9,43.7,15.8,43.8L15.8,43.8z M19.8,44.6c0-0.1-0.4-0.5-0.4-1.3
	c0-0.6-0.2-1-0.6-1.3c-0.7-0.5-1.7-1-2.8-1c0.3,1,0.2,0.6,0.2,1.6c0,0.5,0.4,1,0.7,1.2C17.4,44.4,18.7,44.9,19.8,44.6L19.8,44.6z
	 M7.6,39.4c0.3,0.2,0.5,0.4,1,0.5l-0.1-0.4c0.1-1.3,1.1-1.3,0.3-2.8c-0.4-0.8-1-1.5-1.7-1.8C7,35.5,7,35.7,6.6,36.1
	C5.7,37,6.4,38.3,7.2,39C7.3,39.2,7.4,39.2,7.6,39.4L7.6,39.4z M38.6,33.9c1,0,0.7-0.1,1.5,0.3c0.9,0.4,2-0.7,2.5-1.5
	c0.3-0.4,0.4-1,0.5-1.6c-0.9,0.3-0.6,0.3-1.6,0C40.3,30.8,39,32.6,38.6,33.9L38.6,33.9z M0.7,17.8c0.6-0.3,0.6-0.4,1.4-0.4
	c1.6,0.2,2.5-2.3,2.5-3.2c-1.6,0.5-1.7-0.7-3,0.6C1,15.6,0.6,16.6,0.7,17.8L0.7,17.8z M40.4,30.8c1.8-0.5,1.7,0.6,3-0.6
	c0.7-0.7,1-1.7,1-3c-0.6,0.3-0.5,0.4-1.5,0.3C41.5,27.4,40.6,29.4,40.4,30.8L40.4,30.8z M33.4,38.9c0.8,0.4,0.6,0.1,1.3,0.8
	c0.4,0.4,1,0.4,1.6,0.2c0.9-0.3,2-1.2,2.2-2c-1.7,0.1-1.1-1.1-2.9-0.6C34.9,37.5,33.7,38.3,33.4,38.9L33.4,38.9z M26.8,41.7
	c0.1,0.2,0.3,0.2,0.5,0.5c0.5,0.6,0.2,1.3,1.6,1.5c1.2,0.2,2.5-0.4,3.1-1c-0.5-0.2-0.8-0.3-1.1-0.8c-0.3-0.5-0.4-0.6-1-0.8
	C28.8,40.9,27.5,41.2,26.8,41.7L26.8,41.7z M19.5,42c0.9,1.2-0.1,1.8,1.3,2.6c0.7,0.4,1.6,0.5,2.5,0.4c0.1,0,0.3-0.1,0.4-0.1
	c0.4-0.1,0.3-0.2,0.4-0.2c-1.1-0.5-0.3-1.5-1.5-2.2C21.9,42,20.4,41.6,19.5,42L19.5,42z M36.3,36.7c1.7,0,1.3,1.3,3.1,0.4
	c0.7-0.4,1.6-1.3,1.8-2.4c-1.6,0.3-1.4-0.9-3.1,0C37.5,35,36.5,35.9,36.3,36.7L36.3,36.7z M32.4,5.4c-0.3-1.5,0.8-1.7-0.3-3
	c-0.5-0.6-1.7-1.2-2.9-1.2c0.7,1.3-0.3,1.8,0.7,2.9C30.3,4.5,30.5,4.7,31,5C31.4,5.2,31.9,5.4,32.4,5.4L32.4,5.4z"/>
</svg>