<svg xmlns="http://www.w3.org/2000/svg" viewBox="0 0 45 45">
<path fill-rule="evenodd" clip-rule="evenodd" fill="#3F3F41" d="M11.3,16.2v0.4c0,0,0,0,0,0.1c0,0,0,0.1,0,0.1
	c0,0.1,0.1,0.3,0.1,0.4c0,0.1,0,0,0,0.1c0,0.1,0,0.1,0,0.1l0.1,0.4c0,0.1,0,0.1,0.1,0.3c0,0.1,0.2,0.7,0.3,0.9l0.1,0.3
	c0,0,0,0.1,0,0.1l0.7,1.6c0.3,0.4,0.4,0.8,0.7,1.3l0.1,0.2c0,0,0,0.1,0.1,0.1l0.8,1.3c0,0,0,0,0.1,0.1l0.5,0.7
	c0,0.1,0.1,0.1,0.1,0.1l0.7,0.9c0.1,0.1,0.2,0.2,0.2,0.3l0.7,0.8c0.2,0.2,0.4,0.5,0.7,0.7c0,0,0,0,0.1,0.1l2,1.9
	c0.1,0,0.1,0.1,0.1,0.1l0.4,0.4c0.2,0.2,1,0.8,1.2,0.9l0.5,0.3c0.1,0,0.1,0.1,0.2,0.1l0.3,0.2c0.2,0.1,0.3,0.2,0.5,0.3
	c0.1,0,0.1,0.1,0.2,0.1c0.1,0,0.1,0.1,0.2,0.1c0.2,0.1,0.2,0.1,0.3,0.2c0.2,0.1,0.4,0.2,0.5,0.3l0.9,0.4c0,0,0.1,0,0.1,0l1.1,0.4
	c0.1,0,0.1,0,0.2,0.1c0.2,0,0.8,0.2,0.9,0.2c0.1,0,0.5,0.1,0.7,0.1l0.2,0c0.1,0,0,0,0,0h0.8c0,0,0,0,0.1-0.1l0.3-0.1
	c0.2-0.1,0.2-0.1,0.3-0.2c0.1,0,0.1-0.1,0.1-0.1c0.3-0.1,0.6-0.4,0.8-0.5l1.3-1c0,0,0.1,0,0.1-0.1l0.8-0.6c0.3-0.2,0.7-0.5,0.9-0.8
	c0.1-0.1,0.1-0.1,0.1-0.1c0.1-0.1,0.1-0.1,0.1-0.1V30l0,0c0-0.1-0.1-0.1-0.2-0.2c-0.1-0.1-0.2-0.2-0.3-0.3l-0.4-0.4c0,0,0,0-0.1,0
	L31.1,28c-0.2-0.1-0.7-0.4-0.9-0.6c-0.1,0-0.1-0.1-0.2-0.1c-0.3-0.2-1.3-0.8-1.6-0.9c-0.3-0.1-1.1,0.7-1.2,0.9
	c-0.2,0.2-0.5,0.5-0.7,0.7c-0.2,0.2-0.3,0.4-0.7,0.4c-0.1,0-0.6,0-0.7,0c-0.1,0,0,0-0.1,0c-0.1,0-0.3-0.1-0.4-0.1
	c-0.1,0-0.2-0.1-0.3-0.1c-0.1,0-0.3-0.1-0.4-0.1l-0.3-0.1c0,0,0,0-0.1,0l-1.3-0.7c0,0,0,0-0.1,0c-0.1,0-0.1-0.1-0.2-0.1
	c0,0,0,0-0.1,0c-0.2-0.1-0.4-0.3-0.5-0.4c-0.1-0.1-0.3-0.2-0.4-0.3c-0.1-0.1-0.3-0.2-0.4-0.4c-0.2-0.2-0.5-0.5-0.7-0.7l-0.3-0.4
	c0,0,0,0-0.1,0l-0.1-0.1c-0.1-0.1-0.3-0.4-0.5-0.6c-0.1-0.1-0.1-0.1-0.1-0.2l-0.2-0.3c0,0,0-0.1-0.1-0.1c-0.1-0.2-0.3-0.4-0.4-0.7
	c0-0.1-0.1-0.2-0.1-0.2c-0.1-0.2-0.4-0.7-0.4-0.8l-0.1-0.2c0,0,0,0,0-0.1l-0.1-0.3c-0.1-0.1-0.1-0.3-0.1-0.4c0-0.1,0-0.1,0-0.1
	c0,0,0-0.1-0.1-0.1L16.9,20c0-0.1-0.1-0.3-0.1-0.4c0-0.1-0.1-0.2,0-0.3l0.2-0.3c0.2-0.2,0.4-0.4,0.6-0.6l0.8-0.6
	c0.2-0.2,0.6-0.5,0.7-0.7c0.1-0.1-0.2-0.6-0.3-0.8c0,0,0-0.1-0.1-0.1c-0.1-0.1-0.1-0.3-0.2-0.4L18,14.9c0-0.1-0.1-0.1-0.1-0.2
	l-0.2-0.3c0-0.1-0.1-0.2-0.2-0.3c-0.1-0.2-0.3-0.5-0.5-0.8c-0.1-0.2-0.3-0.4-0.4-0.7c-0.1-0.1-0.3-0.4-0.4-0.5c0,0,0,0-0.1-0.1
	c-0.1-0.2-0.3-0.4-0.5-0.6c-0.1-0.1-0.2-0.1-0.2-0.2h-0.1v0c-0.1,0-0.1,0.1-0.2,0.1c-0.2,0.1-0.2,0.1-0.3,0.3l-0.2,0.2
	c0,0,0,0-0.1,0.1c-0.3,0.3-0.7,0.7-0.9,1c-0.1,0.1-0.2,0.2-0.3,0.3l-0.3,0.3C12.9,14,11.5,15.7,11.3,16.2
	C11.3,16.2,11.3,16.2,11.3,16.2L11.3,16.2z M28,22.8c0.1,0,0.2,0,0.2,0c0.1,0,0.2,0,0.3,0c0.1,0,0.4,0,0.5-0.1c0,0,0-0.1,0.1-0.2
	c0-0.1,0-0.6,0-0.7c0-0.1,0-0.1,0-0.2c0-0.1,0-0.1,0-0.2c0-0.1,0-0.3-0.1-0.4c0,0,0,0,0,0c0-0.1,0-0.1,0-0.2c0-0.1,0-0.1-0.1-0.2
	l-0.1-0.4c0,0,0-0.1-0.1-0.2c-0.2-0.4-0.4-0.9-0.7-1.2c-0.1-0.1-0.1-0.2-0.3-0.3v0l0,0c0,0,0-0.1-0.1-0.1c-0.2-0.3-0.5-0.6-0.8-0.8
	l-0.5-0.4c0,0-0.1-0.1-0.2-0.1l-0.6-0.4c-0.2-0.1-0.3-0.1-0.4-0.2c-0.1,0,0,0-0.1,0c0,0-0.1,0-0.1,0l-0.5-0.2
	c-0.2-0.1-0.2-0.1-0.4-0.1c-0.1,0-0.1,0-0.2,0c-0.1,0-0.1,0-0.2,0c-0.2,0-1.3-0.1-1.4,0c-0.1,0.1-0.1,0.4-0.1,0.5l-0.2,1.2
	c0,0,0,0.1,0,0.2c0,0.1,0,0,0,0c0,0,0,0,0,0c0.1,0,0.3,0,0.4-0.1c0.1,0,0.3,0,0.4,0c0.2,0,0.5,0,0.6,0c0.1,0,0.1,0,0.2,0
	c0.1,0,0.8,0.2,0.9,0.3c0.3,0.1,0.8,0.5,1.1,0.8c0.5,0.4,0.6,0.7,0.9,1.2l0.1,0.4c0.1,0.4,0.1,0.4,0.1,0.5l0.1,0.8
	c0,0.2,0,0.3,0,0.5c0,0.1-0.1,0.3-0.1,0.5c0.1,0,0.5-0.1,0.7-0.1C27.8,22.9,27.9,22.8,28,22.8L28,22.8z M33.8,22v-0.4
	c-0.1-0.1,0-0.4-0.1-0.6c0-0.1,0-0.2,0-0.3c0-0.1,0-0.2,0-0.3c0-0.1,0-0.2,0-0.3c0-0.1,0-0.2-0.1-0.3c0-0.1,0-0.1,0-0.1
	c0-0.2,0-0.1-0.1-0.3c-0.1-0.3-0.2-0.8-0.3-1.1L33,18.1c-0.1-0.2-0.4-0.9-0.5-1l-0.1-0.1c0-0.1-0.1-0.1-0.1-0.2
	c-0.2-0.3-0.4-0.7-0.6-1c-0.1-0.2-0.4-0.4-0.5-0.6c0,0,0-0.1-0.1-0.1c-0.1-0.1-0.1-0.1-0.1-0.2l-0.3-0.3c-0.2-0.2-0.3-0.3-0.5-0.5
	c0,0-0.1-0.1-0.1-0.1c0,0-0.1,0-0.1-0.1c0,0-0.1-0.1-0.1-0.1c0,0,0,0,0,0l-0.3-0.2c-0.1-0.1-0.2-0.2-0.4-0.3c-0.1,0-0.1-0.1-0.2-0.1
	l-1.4-0.8c-0.1,0-0.1-0.1-0.2-0.1c0,0-0.1,0-0.1-0.1l-0.2-0.1C27,12,26.7,12,26.5,11.9c-0.2-0.1-0.3-0.1-0.5-0.2
	c-0.1,0-0.3-0.1-0.5-0.1l-0.4-0.1c-0.1,0-0.9-0.1-1-0.1c-0.1,0-0.2,0-0.3,0c-0.1,0-0.2,0-0.3-0.1H23c0,0.1,0,0,0,0.1
	c0,0,0,0.1,0,0.1c0,0.1,0,0.1,0,0.2c0,0.2,0,0.3-0.1,0.5c0,0.1-0.1,0.9-0.1,1c0.2,0,0.4,0,0.6,0c0.4,0,0.7,0.1,1,0.1
	c0,0,0.1,0,0.1,0l0.2,0c0.1,0,0.1,0,0.1,0l0.2,0c0.1,0,0.2,0,0.2,0.1c0,0,0.1,0,0.1,0l0.5,0.2c0,0,0,0,0.1,0c0.1,0,0.1,0.1,0.2,0.1
	l0.2,0.1c0,0,0.1,0,0.1,0l0.3,0.2c0,0,0,0,0.1,0c0,0,0,0,0,0l0.1,0.1c0,0,0,0,0.1,0.1c0.5,0.3,0.8,0.5,1.2,0.8l0.8,0.7
	c0,0.1,0.1,0.1,0.1,0.1l0.1,0.1c0.3,0.3,0.8,0.9,1,1.3c0.2,0.3,0.4,0.6,0.5,0.9c0.1,0.2,0.4,0.8,0.4,1c0,0.1,0.1,0.1,0.1,0.2
	l0.1,0.6c0,0,0,0.1,0,0.1c0,0,0,0.1,0,0.1c0,0.1,0,0.1,0,0.1l0.2,1c0,0.1,0,0.2,0,0.3c0,0.1,0,0.2,0,0.3c0,0.1,0,0.5,0,0.5
	c0,0,0,0,0.1,0c0,0,0,0,0.1,0c0.1,0,0.1,0,0.1,0c0.1,0,0.1,0,0.2,0c0.1,0,0.1,0,0.2,0l0.5-0.1c0.1,0,0.1,0,0.2,0
	C33.4,22.1,33.6,22,33.8,22L33.8,22z"/>
</svg>