<svg xmlns="http://www.w3.org/2000/svg" viewBox="0 0 45 45">
<path fill-rule="evenodd" clip-rule="evenodd" fill="#3F3F41" d="M22.5,3.9c10.3,0,18.6,8.3,18.6,18.6c0,10.3-8.3,18.6-18.6,18.6
	c-10.3,0-18.6-8.3-18.6-18.6C3.9,12.2,12.2,3.9,22.5,3.9L22.5,3.9z M10.8,16v0.5c0,0,0,0,0,0.1c0,0,0,0.1,0,0.1
	c0,0.1,0.1,0.3,0.1,0.4c0,0.1,0,0,0,0.1c0,0.1,0,0.1,0,0.1l0.1,0.4c0,0.1,0,0.2,0.1,0.3c0,0.1,0.2,0.7,0.3,0.9l0.1,0.3
	c0,0,0,0.1,0,0.1l0.8,1.7c0.3,0.5,0.4,0.8,0.7,1.3l0.1,0.2c0,0,0,0.1,0.1,0.1l0.9,1.3c0,0,0,0,0.1,0.1l0.5,0.7
	c0,0.1,0.1,0.1,0.1,0.2l0.7,0.9c0.1,0.1,0.2,0.2,0.3,0.3l0.8,0.9c0.2,0.2,0.4,0.5,0.7,0.7c0,0,0,0,0.1,0.1l2,1.9
	c0.1,0,0.1,0.1,0.2,0.1l0.4,0.4c0.2,0.2,1,0.8,1.2,1l0.5,0.3c0.1,0,0.1,0.1,0.2,0.1l0.3,0.2c0.2,0.1,0.3,0.2,0.5,0.3
	c0.1,0,0.1,0.1,0.2,0.1c0.1,0,0.1,0.1,0.2,0.1c0.2,0.1,0.2,0.1,0.3,0.2c0.2,0.1,0.4,0.2,0.5,0.3l0.9,0.4c0,0,0.1,0,0.1,0l1.1,0.4
	c0.1,0,0.1,0,0.2,0.1c0.2,0,0.9,0.2,0.9,0.2c0.1,0,0.5,0.1,0.7,0.1l0.2,0c0,0,0,0,0,0h0.9c0,0,0,0,0.1-0.1l0.3-0.1
	c0.2-0.1,0.2-0.1,0.3-0.2c0.1,0,0.1-0.1,0.2-0.1c0.3-0.2,0.6-0.4,0.8-0.5l1.3-1c0,0,0.1,0,0.1-0.1l0.8-0.6c0.3-0.3,0.7-0.5,0.9-0.8
	c0.1-0.1,0.1-0.1,0.1-0.1c0.1-0.1,0.1-0.1,0.1-0.2v-0.1l0,0c0-0.1-0.1-0.1-0.2-0.2c-0.1-0.1-0.2-0.2-0.3-0.3l-0.5-0.4c0,0,0,0-0.1,0
	l-1.7-1.1c-0.2-0.1-0.7-0.5-0.9-0.6c-0.1,0-0.2-0.1-0.2-0.1c-0.3-0.2-1.4-0.8-1.7-0.9c-0.3-0.1-1.1,0.7-1.3,0.9
	c-0.2,0.2-0.5,0.5-0.7,0.7c-0.2,0.2-0.3,0.4-0.7,0.4c-0.1,0-0.6,0-0.7,0c-0.1,0-0.1,0-0.2,0c-0.2,0-0.3-0.1-0.4-0.1
	c-0.1,0-0.2-0.1-0.3-0.1c-0.1,0-0.3-0.1-0.4-0.1L23.3,28c0,0,0,0-0.1,0l-1.3-0.8c0,0,0,0-0.1,0c-0.1,0-0.1-0.1-0.2-0.2
	c0,0,0,0-0.1,0c-0.2-0.1-0.4-0.3-0.6-0.4c-0.1-0.1-0.3-0.2-0.4-0.3c-0.1-0.1-0.3-0.3-0.4-0.4c-0.2-0.2-0.6-0.5-0.7-0.7l-0.3-0.4
	c0,0,0,0,0,0L19,24.6c-0.1-0.2-0.3-0.4-0.5-0.6c-0.1-0.1-0.1-0.1-0.2-0.2l-0.2-0.3c0,0,0-0.1-0.1-0.1c-0.2-0.2-0.3-0.5-0.4-0.7
	c0-0.1-0.1-0.2-0.1-0.2c-0.1-0.2-0.4-0.7-0.4-0.8L17,21.3c0,0,0,0,0-0.1l-0.1-0.3c-0.1-0.1-0.1-0.3-0.2-0.4c0-0.1,0-0.1,0-0.1
	c0,0,0-0.1-0.1-0.1L16.5,20c0-0.1-0.1-0.3-0.1-0.4c0-0.1-0.1-0.2,0-0.3l0.2-0.3c0.2-0.2,0.4-0.5,0.7-0.6l0.8-0.7
	c0.2-0.2,0.6-0.5,0.7-0.7c0.1-0.1-0.2-0.7-0.3-0.8c0,0,0-0.1-0.1-0.1c-0.1-0.1-0.1-0.3-0.2-0.4l-0.5-0.9c0-0.1-0.1-0.1-0.1-0.2
	l-0.2-0.3c0-0.1-0.1-0.2-0.2-0.3c-0.1-0.2-0.3-0.5-0.5-0.8c-0.1-0.2-0.3-0.4-0.4-0.7c-0.1-0.2-0.3-0.4-0.4-0.6c0,0-0.1,0-0.1-0.1
	c-0.1-0.2-0.3-0.4-0.5-0.6C15.3,11,15.3,11,15.3,11h-0.1v0c-0.1,0-0.1,0.1-0.2,0.1c-0.2,0.1-0.2,0.2-0.3,0.3l-0.2,0.2
	c0,0,0,0-0.1,0.1c-0.3,0.3-0.7,0.8-1,1.1c-0.1,0.1-0.2,0.2-0.3,0.3l-0.3,0.3C12.5,13.8,11.1,15.5,10.8,16C10.8,16,10.8,16,10.8,16
	L10.8,16z M27.9,22.8c0.1,0,0.2,0,0.3,0c0.1,0,0.2,0,0.3,0c0.1,0,0.4,0,0.5-0.1c0,0,0-0.1,0.1-0.2c0-0.1,0-0.6,0-0.7
	c0-0.1,0-0.2,0-0.2c0-0.1,0-0.1,0-0.2c0-0.1,0-0.3-0.1-0.4l0,0c0-0.1,0-0.1,0-0.2c0-0.1,0-0.1-0.1-0.2L28.6,20c0,0-0.1-0.1-0.1-0.2
	c-0.2-0.4-0.4-0.9-0.7-1.3c-0.1-0.1-0.1-0.2-0.3-0.3c0,0,0,0,0,0l0,0c0,0,0-0.1-0.1-0.1c-0.2-0.3-0.5-0.6-0.8-0.8l-0.5-0.4
	c0,0-0.1-0.1-0.2-0.1l-0.6-0.4c-0.2-0.1-0.3-0.1-0.4-0.2c-0.1,0,0,0-0.1,0c0,0-0.1,0-0.1,0l-0.5-0.2C24.1,16,24,16,23.9,16
	c-0.1,0-0.1,0-0.2,0c-0.1,0-0.1,0-0.2,0c-0.2,0-1.3-0.1-1.4,0c0,0.1-0.1,0.4-0.1,0.5l-0.2,1.3c0,0,0,0.1,0,0.2c0,0.1,0,0,0,0
	c0,0,0,0,0,0c0.1,0,0.3,0,0.4-0.1c0.1,0,0.3,0,0.4,0c0.2,0,0.5,0,0.7,0c0.1,0,0.1,0,0.2,0c0.2,0,0.8,0.2,1,0.3
	c0.3,0.2,0.8,0.5,1.1,0.8c0.5,0.5,0.6,0.7,0.9,1.2l0.2,0.4c0.1,0.4,0.1,0.4,0.2,0.5L27,22c0,0.2,0,0.3,0,0.5c0,0.2-0.1,0.3-0.1,0.5
	c0.1,0,0.5-0.1,0.8-0.1C27.8,22.9,27.8,22.8,27.9,22.8L27.9,22.8z M33.8,22v-0.4c-0.1-0.1,0-0.4-0.1-0.6c0-0.1,0-0.2,0-0.3
	c0-0.1,0-0.2,0-0.3c0-0.1,0-0.2,0-0.3c0-0.1,0-0.2-0.1-0.3c0-0.1,0-0.1,0-0.1c-0.1-0.2,0-0.1-0.1-0.3c-0.1-0.3-0.2-0.9-0.3-1.1
	L33,18c-0.1-0.2-0.4-1-0.5-1.1l-0.1-0.2c0-0.1-0.1-0.1-0.1-0.2c-0.2-0.3-0.4-0.7-0.7-1c-0.2-0.2-0.3-0.4-0.5-0.6c0,0,0-0.1-0.1-0.1
	c-0.1-0.1-0.1-0.1-0.2-0.2l-0.3-0.3c-0.2-0.2-0.3-0.3-0.5-0.5c0,0-0.1-0.1-0.1-0.1c0,0-0.1,0-0.1-0.1c0,0-0.1-0.1-0.1-0.1
	c0,0,0,0,0,0l-0.3-0.2c-0.1-0.1-0.2-0.2-0.4-0.3c-0.1,0-0.1-0.1-0.2-0.1l-1.4-0.9c-0.1,0-0.2-0.1-0.2-0.1c0,0-0.1,0-0.1-0.1
	l-0.2-0.1c-0.2-0.1-0.5-0.2-0.7-0.3c-0.2-0.1-0.3-0.1-0.5-0.2c-0.1,0-0.3-0.1-0.5-0.2L25,11.2c-0.1,0-0.9-0.1-1-0.1
	c-0.1,0-0.2,0-0.3,0c-0.1,0-0.2,0-0.3-0.1h-0.7c0,0.1,0,0,0,0.1c0,0,0,0.1,0,0.1c0,0.1,0,0.1,0,0.2c0,0.2,0,0.3-0.1,0.5
	c0,0.2-0.1,0.9-0.1,1c0.2,0,0.4,0,0.6,0c0.4,0,0.7,0.1,1,0.1c0.1,0,0.1,0,0.1,0l0.3,0c0.1,0,0.1,0,0.1,0l0.3,0c0.1,0,0.2,0,0.2,0.1
	c0,0,0.1,0,0.1,0l0.5,0.2c0,0,0,0,0.1,0c0.1,0,0.1,0.1,0.2,0.1l0.2,0.1c0,0,0.1,0,0.1,0l0.3,0.2c0,0,0,0,0.1,0c0,0,0,0,0,0l0.2,0.1
	c0.1,0,0,0,0.1,0.1c0.5,0.3,0.8,0.5,1.3,0.8l0.8,0.7c0,0.1,0.1,0.1,0.1,0.1l0.1,0.2c0.3,0.3,0.8,0.9,1,1.3c0.2,0.3,0.4,0.6,0.5,0.9
	c0.1,0.2,0.3,0.8,0.4,1c0,0.1,0.1,0.1,0.1,0.2l0.2,0.6c0,0,0,0.1,0,0.1c0,0,0,0.1,0,0.1c0,0.1,0,0.1,0,0.1l0.2,1c0,0.1,0,0.2,0,0.3
	c0,0.1,0,0.2,0,0.3c0,0.1,0,0.5,0,0.5c0,0,0,0,0.1,0c0,0,0,0,0.1,0c0.1,0,0.1,0,0.1,0c0.1,0,0.1,0,0.2,0c0.1,0,0.2,0,0.2,0l0.5-0.1
	c0.1,0,0.2,0,0.2,0C33.5,22.1,33.6,22,33.8,22L33.8,22z"/>
</svg>
