<svg xmlns="http://www.w3.org/2000/svg" viewBox="0 0 70.571 22.655">
  <g fill="#FFFFFF">
    <path fill-rule="evenodd" d="M52.663 17.35c1.852 0 3.557-.64 4.936-1.716.1-.085.19-.13.29-.22.26-.252.55-.47.78-.752.55-.655 1.1-1.34 1.44-2.14.26-.61.36-.778.54-1.498.43-1.7.36-3.972-.38-5.54-.61-1.29-1.05-2-2.11-3.015-.43-.42-.96-.78-1.47-1.09-2-1.21-4.45-1.41-6.73-.65-.99.33-1.87.9-2.67 1.54-.18.14-.37.36-.54.53-.53.52-.55.61-.95 1.14-.15.21-.26.44-.4.66-.38.63-.7 1.54-.88 2.3-.08.35-.18.99-.18 1.39 0 .23-.04.28-.04.5l.07.95c.04.34.07.59.15.92.11.52.31 1.17.52 1.6.33.69.7 1.36 1.19 1.96l1.02 1.06c.44.38 1.39 1.03 1.93 1.26 1.14.48 2.13.77 3.47.77zM49.39 5.434c-.295-.62-1.04-.93-1.493-.392-.062.08-.104.148-.143.253-.04.105-.09.264-.012.345.05-.093.047-.225.105-.322.16-.282.496-.46.81-.302.813.42.573 1.728.82 2.445.245.71.536.78.67.95-.212-.01-.413-.1-.59-.2-.075-.04-.102-.05-.164-.08-.24-.13-.612-.52-.79-.74-.152-.19-.586-.61-.795-.72-.112-.05-.24-.11-.348-.16-.888-.34-1.446.36-1.46.88-.01.18.018.3.1.43.062.1.15.23.267.25-.012-.2-.11-.17-.174-.37-.252-.76.705-1.38 1.406-.69.13.14.17.13.37.37.19.24.39.66.59.92.22.29.43.54.75.75.05.03.1.08.15.11.04.02.12.06.17.07.51.18.48-.05.25.69-.06.18-.12.4-.13.61-.02.23-.03.46-.08.67-.11.42-.22.34-.25.48-.11.05-.15.12-.28.15-.11.03-.24.02-.35 0-.17-.03-.3-.08-.41-.19l-.11-.11c-.18-.21-.29-.47-.42-.75-.14-.28-.27-.51-.44-.73-.35-.43-1-.72-1.66-.29-.48.32-.77 1-.31 1.56.3.37.94.43 1.16 0 .03-.07.05-.15.04-.24-.01-.1-.04-.15-.1-.19.18.54-.47.85-.9.39-.76-.83.66-1.99 1.39-.95.26.37.43 1.09.54 1.25.21.52.65.86 1.19.95.15.03.42.04.58-.01.06-.02.01.01.05-.02.44-.09.74-.53.93-.91.16-.323.29-1.16.54-1.27 0 .048-.16.47-.205.83-.17 1.37.51 2.076.01 2.765-.13.18-.34.345-.65.415-.73.16-1.22-.493-1-1 .09-.224.35-.433.667-.28-.32-.28-.71.1-.813.347-.15.38.09.82.3.97.09.35 1.73.63 2.187-.85.202-.65-.42-2.02.462-2.95.55-.568 1.142-.41 1.57.12.374.47.45 1.273.36 1.982-.06.45-.11.646.08 1.05.5 1.09 1.732 1.21 2.26.53.546-.7-.155-1.56-.667-1.18.578-.24.96.544.47 1.06-.4.42-1.124.26-1.46-.2-.5-.68.18-1.37.015-2.74-.016-.145-.04-.29-.08-.43-.038-.15-.1-.28-.135-.41.4.1.29 1.65 1.34 2.13.45.204 1.02.1 1.39-.137.774-.49.705-1.565 1.32-2.174.36-.35.94-.19 1.21.1.63.68-.24 1.63-.78 1.16-.266-.23-.13-.52-.007-.59-.64.44.39 1.33 1.06.48.47-.6.05-1.394-.61-1.64-.56-.2-1.05.05-1.32.34-.68.72-.65 1.89-1.633 1.896-.53 0-.71-.583-.74-1.025-.02-.29-.034-.496-.11-.77-.055-.18-.21-.53-.19-.7.16-.1.35-.04.79-.324.6-.395.86-1.05 1.22-1.553.2-.272.58-.644.95-.73.7-.16 1.174.66.8 1.15-.28.357-.52.287-.77.14.27.48 1.26-.023 1.02-.86-.17-.58-.73-.92-1.46-.657-.49.19-.97.72-1.24 1.04-.22.26-.85.85-1.42.89.11-.12.28-.22.424-.42.125-.18.194-.36.264-.6.14-.496.11-1 .24-1.496.29-1.15 1.05-1.09 1.35-.61.14.23.1.42.07.69.27-.54-.085-1.123-.585-1.2-.59-.08-.94.46-1.12.84-.29.63-.283 1.647-.99 1.99-.295.14-.535.1-.85.04.12-.39 1.32-1.97 1.09-3.344-.105-.64-.46-1.166-.79-1.44-.365-.32-.91-.656-1.593-.667-1.2-.01-2.22 1.015-2.39 2.08-.107.67.09 1.32.33 1.87.11.26.233.5.36.75l.39.75c-.63.13-1.08.02-1.396-.64-.17-.355-.34-1.39-.55-1.567zm2.34.166c.123 0 .224.1.224.224s-.1.22-.225.22c-.12 0-.23-.096-.23-.22s.1-.225.22-.225zm1.778 0c.124 0 .224.1.224.224s-.1.22-.224.22c-.12 0-.22-.096-.22-.22s.1-.225.22-.225zM3.15.04c-.267 0-.434.236-.818.522-.244.186-.492.333-.75.508l-.726.534c-.655.66-.58.496-.58 1.113 0 .794.25 1.2.48 1.762L1.32 5.6c.7 1.232.61.787.363 2.057C1.356 9.35 0 15.792 0 17.31c0 .225.07.33.178.353h.116c.29-.05.71-.407.903-.535l2.554-1.736c.3-.256.3-1.39.34-1.786.03-.244.03-.426.05-.663l.2-1.93c.03-.208.11-.41.12-.627l1.31 1.643c.95 1.16 2.07 2.48 3.46 3.14.87.41 1.27.48 2.24.48.08 0 .77-.47.87-.54l.96-.82c.07-.07.1-.12.17-.19l.67-.75c.44-.55 1.08-1.53 1.43-2.12.1-.17.97-1.63 1.11-1.73.03.32 1.22 4.68 1.35 5.18l.56 2.04c.16.55.22.86.39.92h.14c.23-.06.63-.37 1.4-.93.22-.16 1.6-1.09 1.68-1.2.1-.15.05-.24-.02-.42-.59-1.49-.96-2.84-1.43-4.31-.24-.75-.74-2.88-.9-3.71-.1-.52-.04-.38-.22-.92-.37-1.12-.11-1.93.26-2.92.18-.49 1.48-3.28.74-3.28h-.02c-.29 0-.18.02-.55.22-.15.08-.26.14-.4.22L16.37 2.3c-.16.124-.133.236-.13.496.004.505-.22 2.497-.29 2.98-.33 2.28-1.14 4.597-3.03 6.02-.167.125-.18.152-.45.183-.337.03-1.155-.24-1.465-.41-.26-.14-1.883-1.63-2.053-1.84-.11-.15-.17-.2-.3-.34-1-.99-2.23-2.848-2.99-4.09C4.8 3.93 4.2 2.42 3.6.88 3.48.57 3.39.03 3.15.03zm26.173 7.83c0 .52.066.627.654.496.357-.082.806-.287.958.174.856 2.67.538 4.584.554 7.276 0 1.09-.23.62.22 1.306.18.275.41.326.58.058l.47-.79c.57-.953.98-1.655 1.59-2.573l1.08-1.44c.27-.342.49-.598.79-.9l1.08-1.004c.14-.127 1.03-.44 1.46-.14.43.307.65 1.655.77 2.178.13.57.39 2.56.39 3.15l.15 1.62c.01.12-.03.39.32.39.19 0 .24-.12.37-.22.33-.27.7-.48 1.07-.7.19-.11 1.35-.78 1.35-1.04l-.21-2.9c-.07-.44-.09-.94-.13-1.36-.06-.47-.11-.93-.16-1.38-.13-1.02-.35-2.83-.85-3.67-.51-.85-1.2-.64-1.94-.24-.51.28-.84.51-1.26.87-.15.12-.22.24-.37.35-.32.24-.75.8-1.01 1.11l-1.44 1.76c-.07.08-.08.11-.16.2-.2.21-.52.6-.7.72-.06-.24-.06-.45-.09-.73-.14-1.11-.11-2.51-.3-3.87-.06-.41-.14-.5-.4-.86-.31-.43-1.57.07-1.8.2-.88.48-1.63 1.14-2.28 1.5-.11.06-.2.1-.29.15-.15.08-.51.15-.51.36zm32.825 2.437c0 .9.403 1.367 1.01 1.705.668.368 1.326.457 2.06.62.557.124 1.564.325 1.998.678.33.267.713.77.794 1.212.043.22.016.326-.035.547-.802.18-1.06.25-1.902-.07-.717-.29-1.21-.65-1.44-1.39-.187-.6-.64-.09-1 .1-.245.13-.462.23-.69.37-.225.14-.427.26-.613.45-.1.1-.186.18-.26.29-.023.04-.197.33-.197.35 0 .63.395 1.28.817 1.7.73.73 1.27.77 2.124.78h.286c1.202 0 2.488-1.09 3.26-1.86.363-.37 1.576-1.61 1.92-1.9.23-.19.284-.65.29-1.07v-.53c0-.6-.394-1.18-.944-1.46-.62-.32-1.046-.47-1.78-.62-.998-.21-2.14-.42-2.757-1.1l-.38-.56c0-.21.29-.45.36-.47.68-.19 1.86.11 2.48.72.07.07.13.12.19.2.08.09.09.17.2.23.21.12.38-.07.52-.19.16-.13.32-.21.51-.32.47-.29 1.11-.66 1.22-1.22.04-.18.05-.53-.02-.71-.08-.19-.72-.63-.92-.73-.81-.43-1.72-.48-2.58-.15-.47.18-1.2.63-1.59.93l-.89.73c-.09.06-.09.06-.17.14L62.4 9.26c-.12.1-.15.264-.19.442-.04.198-.062.388-.062.605zm-39.16-2.085c0 .47.728.287 1.01.364.512.14.404.396.404 1.012l.09 6.916c.092.655-.136 1.15.344 1.15.155 0 .28-.123.384-.21l2.224-1.47c.13-.09.267-.16.267-.365V6.53c0-.167-.25-.51-.36-.624-.19-.202-.5-.098-.78-.055-1.15.19-2.19 1.19-3.07 1.86-.13.1-.5.32-.5.52zm1.298-4.878c0 .21.317.946.414 1.12.984 1.774 3.836-.57 3.836-.96 0-.226-.232-.38-.376-.49-.178-.14-.275-.29-.445-.42-1.046-.838-.725-1.098-1.57-.46l-.313.2c-.543.36-1.546.696-1.546 1.01z" clip-rule="evenodd"/>
    <path d="M1.728 22.55c.256 0 .465-.08.632-.248.174-.166.255-.38.255-.63 0-.38-.205-.66-.585-.74.233-.098.372-.31.372-.598 0-.217-.073-.403-.224-.542-.152-.148-.338-.217-.558-.217H.725v2.975h1.003zm-.674-2.67H1.6c.275 0 .477.198.477.466 0 .267-.206.47-.48.47h-.543v-.935zm0 1.233H1.7c.175 0 .31.054.423.16.113.107.167.24.167.398 0 .33-.248.57-.585.57h-.65v-1.12zm4.42 1.437l.315-.736H7.1l.314.736h.355l-1.32-3.084-1.32 3.084h.34zm.973-2.305l.53 1.263H5.92l.527-1.263zm5.618 2.305v-.31h-1.2v-2.665h-.33v2.975h1.53zm3.12 0v-2.975h-.326v2.975h.32zm10.887 0v-1.177h.662l.66 1.177h.37l-.704-1.243c.337-.132.558-.454.558-.845 0-.252-.085-.465-.256-.632-.17-.17-.376-.255-.62-.255h-.996v2.975h.326zm0-2.67h.66c.32 0 .56.253.56.582 0 .174-.054.314-.17.43-.11.116-.244.17-.415.17h-.635v-1.18zm6.122 2.67v-.31h-1.356v-1.108h1.247v-.31h-1.247v-.94h1.325v-.307h-1.65v2.975h1.68zm2.63-.294c.24.232.547.353.915.353.28 0 .5-.08.67-.23.17-.16.26-.34.26-.55 0-.25-.08-.45-.24-.61-.17-.17-.31-.26-.6-.4-.21-.11-.36-.2-.44-.28-.09-.08-.13-.18-.13-.3 0-.26.2-.43.54-.43.21 0 .41.09.59.27v-.38c-.16-.14-.35-.21-.59-.21-.54 0-.88.3-.88.73 0 .21.06.38.22.51.08.07.15.12.22.17.07.05.17.11.3.17.25.13.43.25.51.34.09.09.14.22.14.39 0 .23-.23.47-.63.47-.34 0-.64-.16-.89-.46v.41zm5.355.294v-2.67h.79v-.305h-1.92v.306h.79v2.67h.32zm3.28 0l.31-.736h1.31l.31.736h.35l-1.32-3.084-1.32 3.084h.34zm.97-2.305l.52 1.263H43.9l.53-1.263zm3.9 1.263c0 .35.1.62.3.81.2.19.46.283.79.283s.59-.09.79-.28c.2-.19.3-.46.3-.81v-1.93h-.33v1.9c0 .54-.29.82-.77.82-.48 0-.77-.28-.77-.82v-1.9h-.33v1.94zm5.49 1.042v-1.177h.66l.66 1.177h.37l-.7-1.243c.33-.132.55-.454.55-.845 0-.252-.09-.465-.26-.632-.18-.17-.38-.255-.62-.255h-1v2.975h.32zm0-2.67h.66c.32 0 .56.253.56.582 0 .174-.06.314-.17.43-.11.116-.25.17-.42.17h-.64v-1.18zm4.46 2.67l.31-.736h1.31l.31.736h.35l-1.33-3.084-1.32 3.084h.34zm.97-2.305l.53 1.263h-1.05l.52-1.263zm4.41 2.305V20.3l2.05 2.355v-3.08h-.33v2.247l-2.05-2.356v3.084h.32zm5.91 0v-2.67h.79v-.305h-1.91v.306h.8v2.67h.32zm-51.06 0v-1.445l1.32 1.445h.42l-1.41-1.538 1.36-1.437h-.41l-1.29 1.37v-1.37h-.32v2.975"/>
  </g>
</svg>
