<svg xmlns="http://www.w3.org/2000/svg" viewBox="0 0 45 45">
<path fill-rule="evenodd" clip-rule="evenodd" fill="#3F3F41" d="M22.5,3.9c10.3,0,18.6,8.3,18.6,18.6c0,10.3-8.3,18.6-18.6,18.6
	S3.9,32.8,3.9,22.5C3.9,12.2,12.2,3.9,22.5,3.9L22.5,3.9z M22.2,8.7C16.5,9,13,14.7,15,19.8c0.3,0.7,0.4,1,0.8,1.6
	c0.8,1.2,1.6,2.5,2.4,3.7c0.6,1,1.3,2,1.9,2.9c0.2,0.3,0.3,0.5,0.5,0.8l1.5,2.2c0.1,0.1,0.1,0.3,0.3,0.3c0.1,0.1,0.3,0.1,0.5,0
	c0.1-0.1,3.7-5.6,3.9-5.9l1.9-2.9c0.8-1.2,1.2-1.7,1.7-3.2c1.3-3.9-0.7-8.1-4.1-9.8C25.1,9,23.7,8.6,22.2,8.7L22.2,8.7z M15,34.2
	c5,3.8,16.1,2.3,16.7-2.6c0.3-2.4-3.4-5.2-4.7-4.4c-0.3,0.2-0.5,0.5-0.3,1c0.1,0.4,0.4,0.5,0.7,0.6c0.3,0.1,0.6,0.3,0.9,0.4
	c2.6,1.5,1.9,3.2-0.6,4.3c-2.7,1.2-6.6,1.3-9.4,0.4c-1.3-0.4-2.8-1.2-3.2-2.3c-0.3-0.9,0.3-1.5,0.7-1.8c0.5-0.4,1-0.7,1.7-1
	c0.4-0.1,0.6-0.2,0.8-0.5C20.1,24.9,9.1,29.8,15,34.2L15,34.2z M22,12.5c-1.9,0.3-3.2,2-2.9,4c0.3,1.7,1.9,3.3,4,2.9
	c1.7-0.3,3.2-1.9,2.9-4c-0.2-1-0.7-1.8-1.3-2.2C24.1,12.7,23.1,12.3,22,12.5L22,12.5z"/>
</svg>
