<svg xmlns="http://www.w3.org/2000/svg" viewBox="0 0 45 45">
<path fill-rule="evenodd" clip-rule="evenodd" fill="#3F3F41" d="M22.2,9c-5.6,0.3-9,5.9-7.1,10.9c0.3,0.7,0.4,0.9,0.8,1.5
	c0.8,1.2,1.6,2.4,2.4,3.6c0.6,0.9,1.3,1.9,1.9,2.9c0.2,0.3,0.3,0.5,0.5,0.7l1.4,2.2c0.1,0.1,0.1,0.3,0.3,0.3c0.1,0.1,0.4,0.1,0.5,0
	c0.1-0.1,3.6-5.4,3.8-5.7l1.9-2.9c0.7-1.2,1.2-1.7,1.7-3.1c1.2-3.8-0.7-7.9-4-9.5C25,9.3,23.7,8.9,22.2,9L22.2,9z M15.2,33.9
	c4.9,3.7,15.8,2.2,16.3-2.6c0.3-2.3-3.3-5.1-4.6-4.2c-0.2,0.2-0.4,0.5-0.3,0.9c0.1,0.4,0.4,0.5,0.7,0.6c0.3,0.1,0.6,0.3,0.9,0.4
	c2.5,1.4,1.9,3.1-0.6,4.2c-2.6,1.1-6.4,1.2-9.2,0.4c-1.2-0.4-2.8-1.2-3.1-2.2c-0.3-0.8,0.3-1.5,0.7-1.8c0.5-0.4,1-0.7,1.7-1
	c0.4-0.1,0.6-0.2,0.8-0.5C20.2,24.8,9.4,29.6,15.2,33.9L15.2,33.9z M22,12.7c-1.9,0.3-3.2,2-2.9,3.9c0.3,1.7,1.9,3.2,3.9,2.9
	c1.7-0.3,3.2-1.9,2.9-3.9c-0.1-1-0.7-1.7-1.2-2.2C24.1,12.9,23.1,12.5,22,12.7L22,12.7z"/>
</svg>
