<?xml version="1.0" encoding="utf-8"?>
<!-- Generator: Adobe Illustrator 17.1.0, SVG Export Plug-In . SVG Version: 6.00 Build 0)  -->
<!DOCTYPE svg PUBLIC "-//W3C//DTD SVG 1.1//EN" "http://www.w3.org/Graphics/SVG/1.1/DTD/svg11.dtd">
<svg version="1.1" id="Layer_1" xmlns="http://www.w3.org/2000/svg" xmlns:xlink="http://www.w3.org/1999/xlink" x="0px" y="0px"
	 viewBox="0 0 45 45" enable-background="new 0 0 45 45" xml:space="preserve">
	 <path fill-rule="evenodd" clip-rule="evenodd" fill="#3F3F41" d="M21.3,14.9l-5.7,0c0,0.3,0.9,1.4,1.1,1.8c0.2,0.3,0.2,0.4,0.6,0.4
	c1,0.1,3.1-0.1,3.9,0c0.1,1.7-0.1,3.7-0.1,5.4c0,1.6,0.1,4-0.1,5.5c-0.2,1.6-1.1,2.8-3,2.5c-0.8-0.1-1.4-0.5-1.9-0.9
	c-0.2-0.2-1.1-1.2-1.2-1.6c0.3-0.2,1.2-0.2,1.6-0.4c-0.3-0.4-0.8-0.6-1.7-2c-0.3-0.5-1-1.9-1.2-2.6c-1.1,0.6-2.2,4.3-1.6,6
	c0.3,0.1,0.8-0.4,1.2-0.4c0.4,2.4,1.9,4,3.5,4.9c0.5,0.3,0.9,0.5,1.4,0.7c1,0.4,1.8,0.5,2.8,1.4l1.6,2c1.2-1.7,1.1-1.7,2.9-2.8
	c0.4-0.2,0.4-0.2,0.8-0.3c0.3-0.1,0.6-0.2,0.9-0.3c0.2-0.1,0.2-0.1,0.4-0.2c0.5-0.2,0.1,0.1,0.7-0.4c0.3-0.2,0.4-0.1,1.1-0.7
	c1.3-1,2.3-2.5,2.6-4.3c0.5,0.1,0.8,0.4,1.2,0.5c0.4-1.5,0-3.4-0.7-4.8l-0.7-1c-0.2-0.2,0-0.1-0.2-0.1c-0.2,0.2-0.4,0.9-0.5,1.3
	c-1.2,2.6-2.2,3-2.3,3.3c0.3,0.1,1.1,0.2,1.3,0.3l0.2,0.1c0,0,0,0,0.1,0c-0.1,0.3-0.4,0.7-0.5,0.9c-0.2,0.3-0.4,0.4-0.7,0.7
	c-1.1,1.1-4.5,2-4.9-1.5c-0.2-1.6-0.1-3.8-0.1-5.4c0-0.8-0.2-5.1,0-5.5c1.2-0.1,2.6,0.1,3.8,0c0.5,0,0.7-0.6,0.9-1
	c0.2-0.3,0.7-0.9,0.7-1.2l-4.3,0c-1.7,0-1.4,0.3-1.4-1.5c0-0.6,0-0.3,0.7-0.8c1.8-1.3,1.1-5.1-1.8-5.1c-1.7,0-2.9,1.3-2.9,3
	c0.1,2,1.7,2.1,1.7,2.8C21.4,13.7,21.3,14.5,21.3,14.9L21.3,14.9z M22.1,9c-1.8,0.6-1.1,3.4,0.8,2.9C24.8,11.3,24,8.4,22.1,9L22.1,9
	z"/>
</svg>