<?xml version="1.0" encoding="utf-8"?>
<!-- Generator: Adobe Illustrator 17.1.0, SVG Export Plug-In . SVG Version: 6.00 Build 0)  -->
<!DOCTYPE svg PUBLIC "-//W3C//DTD SVG 1.1//EN" "http://www.w3.org/Graphics/SVG/1.1/DTD/svg11.dtd">
<svg version="1.1" id="Layer_1" xmlns="http://www.w3.org/2000/svg" xmlns:xlink="http://www.w3.org/1999/xlink" x="0px" y="0px"
	 viewBox="0 0 45 45" enable-background="new 0 0 45 45" xml:space="preserve">
<path fill-rule="evenodd" clip-rule="evenodd" fill="#3F3F41" d="M22.5,3.9c10.3,0,18.6,8.3,18.6,18.6c0,10.3-8.3,18.6-18.6,18.6
	S3.9,32.8,3.9,22.5C3.9,12.2,12.2,3.9,22.5,3.9L22.5,3.9z M21.3,14.7l-5.8,0c0,0.3,0.9,1.4,1.1,1.8c0.2,0.3,0.2,0.4,0.6,0.4
	c1,0.1,3.1-0.2,4,0c0.1,1.8-0.1,3.8-0.1,5.5c0,1.7,0.1,4.1-0.1,5.6c-0.2,1.7-1.2,2.8-3.1,2.5c-0.9-0.2-1.4-0.5-1.9-1
	c-0.2-0.2-1.1-1.2-1.2-1.7c0.3-0.2,1.2-0.3,1.6-0.4c-0.3-0.4-0.9-0.6-1.7-2c-0.3-0.5-1.1-2-1.2-2.6c-1.2,0.6-2.3,4.4-1.7,6.1
	c0.3,0.1,0.8-0.4,1.3-0.5c0.4,2.5,1.9,4.1,3.6,5c0.5,0.3,0.9,0.5,1.5,0.7c1,0.4,1.9,0.5,2.9,1.4l1.6,2c1.2-1.7,1.2-1.7,2.9-2.9
	c0.4-0.2,0.4-0.2,0.9-0.3c0.3-0.1,0.7-0.2,0.9-0.3c0.2-0.1,0.2-0.1,0.4-0.2c0.5-0.2,0.1,0.1,0.7-0.4c0.3-0.2,0.4-0.1,1.1-0.7
	c1.4-1,2.4-2.5,2.7-4.4c0.5,0.1,0.9,0.5,1.3,0.5c0.4-1.6,0-3.5-0.7-4.9l-0.7-1.1c-0.2-0.2,0-0.1-0.2-0.1c-0.2,0.2-0.4,1-0.5,1.3
	c-1.3,2.7-2.3,3.1-2.4,3.4c0.3,0.1,1.1,0.2,1.3,0.3l0.2,0.1c0,0,0,0,0.1,0c-0.1,0.3-0.4,0.7-0.5,0.9c-0.2,0.3-0.4,0.5-0.7,0.7
	c-1.1,1.2-4.6,2.1-5-1.6c-0.2-1.6-0.1-3.9-0.1-5.5c0-0.8-0.2-5.2,0-5.7c1.2-0.1,2.7,0.1,3.9,0c0.6,0,0.7-0.6,1-1
	c0.2-0.3,0.7-1,0.7-1.3l-4.4,0c-1.7,0-1.5,0.3-1.5-1.5c0-0.6,0-0.3,0.7-0.8c1.8-1.3,1.2-5.2-1.9-5.2c-1.7,0-3,1.3-2.9,3.1
	c0.1,2,1.7,2.1,1.7,2.9C21.3,13.5,21.3,14.3,21.3,14.7L21.3,14.7z M22.1,8.7c-1.9,0.6-1.1,3.5,0.9,2.9C24.8,11.1,24,8.1,22.1,8.7
	L22.1,8.7z"/>
</svg>
